<?xml version="1.0" encoding="utf-8"?>
<!-- Generator: Adobe Illustrator 16.0.0, SVG Export Plug-In . SVG Version: 6.00 Build 0)  -->
<!DOCTYPE svg PUBLIC "-//W3C//DTD SVG 1.1//EN" "http://www.w3.org/Graphics/SVG/1.1/DTD/svg11.dtd">
<svg version="1.1" id="Layer_1" xmlns="http://www.w3.org/2000/svg" xmlns:xlink="http://www.w3.org/1999/xlink" x="0px" y="0px"
	 width="248.575px" height="51.794px" viewBox="0 0 248.575 51.794" enable-background="new 0 0 248.575 51.794"
	 xml:space="preserve">
<g>
	<polygon fill="#E8168B" points="112.077,22.374 110.267,19.305 79.716,22.374 110.267,25.442 	"/>
	<polygon fill="#E8168B" points="115.856,22.374 117.665,25.442 142.997,22.374 117.665,19.305 	"/>
	<polygon fill="#E8168B" points="114.089,24.385 111.021,26.196 114.089,44.748 117.158,26.196 	"/>
	<polygon fill="#E8168B" points="114.089,20.362 117.158,18.551 114.089,0 111.021,18.551 	"/>
	<g>
		<path fill="#020202" d="M120.524,38.063c0-1.992,1.449-3.353,3.285-3.353c1.031,0,1.809,0.457,2.363,1.147l-0.468,0.302
			c-0.407-0.564-1.118-0.943-1.896-0.943c-1.525,0-2.702,1.156-2.702,2.847c0,1.672,1.177,2.849,2.702,2.849
			c0.777,0,1.488-0.38,1.896-0.943l0.468,0.292c-0.574,0.709-1.332,1.156-2.363,1.156C121.974,41.417,120.524,40.057,120.524,38.063
			"/>
		<path fill="#020202" d="M130.008,41.301v-4.694h0.505v0.807c0.399-0.525,0.934-0.904,1.585-0.904v0.555
			c-0.087-0.021-0.155-0.021-0.253-0.021c-0.477,0-1.117,0.428-1.332,0.837v3.421H130.008z"/>
		<path fill="#020202" d="M135.595,42.671c0.107,0.049,0.293,0.078,0.408,0.078c0.311,0,0.525-0.126,0.71-0.574l0.369-0.835
			l-1.983-4.733h0.564l1.711,4.102l1.691-4.102h0.572l-2.429,5.725c-0.253,0.593-0.651,0.875-1.206,0.875
			c-0.154,0-0.369-0.03-0.496-0.068L135.595,42.671z"/>
		<path fill="#020202" d="M142.814,40.679l0.302-0.379c0.301,0.379,0.855,0.689,1.517,0.689c0.786,0,1.253-0.407,1.253-0.952
			c0-1.283-2.964-0.563-2.964-2.245c0-0.719,0.612-1.303,1.672-1.303c0.806,0,1.341,0.312,1.681,0.69l-0.281,0.36
			c-0.272-0.37-0.777-0.622-1.399-0.622c-0.729,0-1.177,0.369-1.177,0.854c0,1.176,2.965,0.457,2.965,2.265
			c0,0.758-0.583,1.38-1.76,1.38C143.864,41.417,143.282,41.194,142.814,40.679"/>
		<path fill="#020202" d="M150.511,40.397v-3.344h-0.777v-0.447h0.777v-1.283h0.516v1.283h0.953v0.447h-0.953v3.266
			c0,0.379,0.155,0.642,0.485,0.642c0.224,0,0.418-0.106,0.524-0.224l0.195,0.389c-0.185,0.175-0.408,0.291-0.798,0.291
			C150.812,41.417,150.511,41.038,150.511,40.397"/>
		<path fill="#020202" d="M158.8,41.301v-0.554c-0.418,0.457-0.942,0.67-1.594,0.67c-0.807,0-1.643-0.555-1.643-1.564
			c0-1.021,0.826-1.555,1.643-1.555c0.651,0,1.186,0.213,1.594,0.67v-0.952c0-0.7-0.563-1.079-1.264-1.079
			c-0.583,0-1.04,0.204-1.467,0.69l-0.282-0.351c0.486-0.524,1.03-0.787,1.808-0.787c0.953,0,1.711,0.457,1.711,1.507v3.305H158.8z
			 M158.8,40.377v-1.03c-0.33-0.427-0.855-0.65-1.418-0.65c-0.779,0-1.283,0.496-1.283,1.166c0,0.66,0.504,1.156,1.283,1.156
			C157.944,41.019,158.47,40.805,158.8,40.377"/>
		<rect x="163.608" y="34.817" fill="#020202" width="0.506" height="6.483"/>
		<path fill="#020202" d="M173.442,38.063c0-1.992,1.449-3.353,3.285-3.353c1.031,0,1.809,0.457,2.363,1.147l-0.467,0.302
			c-0.408-0.564-1.119-0.943-1.896-0.943c-1.525,0-2.702,1.156-2.702,2.847c0,1.672,1.177,2.849,2.702,2.849
			c0.777,0,1.488-0.38,1.896-0.943l0.467,0.292c-0.574,0.709-1.332,1.156-2.363,1.156C174.892,41.417,173.442,40.057,173.442,38.063
			"/>
		<rect x="182.926" y="34.817" fill="#020202" width="0.506" height="6.483"/>
		<path fill="#020202" d="M187.464,38.948c0-1.361,0.963-2.459,2.266-2.459c1.428,0,2.215,1.137,2.215,2.488v0.135h-3.926
			c0.047,1.021,0.729,1.867,1.836,1.867c0.594,0,1.138-0.224,1.537-0.651l0.262,0.329c-0.467,0.486-1.059,0.76-1.838,0.76
			C188.444,41.417,187.464,40.396,187.464,38.948 M189.72,36.926c-1.109,0-1.662,0.972-1.701,1.789h3.412
			C191.42,37.918,190.896,36.926,189.72,36.926"/>
		<path fill="#020202" d="M198.96,41.301v-0.554c-0.418,0.457-0.943,0.67-1.594,0.67c-0.807,0-1.643-0.555-1.643-1.564
			c0-1.021,0.826-1.555,1.643-1.555c0.65,0,1.186,0.213,1.594,0.67v-0.952c0-0.7-0.564-1.079-1.264-1.079
			c-0.583,0-1.04,0.204-1.467,0.69l-0.282-0.351c0.485-0.524,1.03-0.787,1.808-0.787c0.952,0,1.711,0.457,1.711,1.507v3.305H198.96z
			 M198.96,40.377v-1.03c-0.331-0.427-0.855-0.65-1.419-0.65c-0.778,0-1.282,0.496-1.282,1.166c0,0.66,0.504,1.156,1.282,1.156
			C198.104,41.019,198.629,40.805,198.96,40.377"/>
		<path fill="#020202" d="M203.769,41.301v-4.694h0.506v0.807c0.398-0.525,0.934-0.904,1.584-0.904v0.555
			c-0.087-0.021-0.156-0.021-0.253-0.021c-0.476,0-1.116,0.428-1.331,0.837v3.421H203.769z"/>
		<path fill="#020202" d="M214.603,38.063c0-1.992,1.449-3.353,3.285-3.353c1.031,0,1.809,0.457,2.363,1.147l-0.467,0.302
			c-0.408-0.564-1.118-0.943-1.896-0.943c-1.525,0-2.701,1.156-2.701,2.847c0,1.672,1.176,2.849,2.701,2.849
			c0.778,0,1.488-0.38,1.896-0.943l0.467,0.292c-0.574,0.709-1.332,1.156-2.363,1.156C216.052,41.417,214.603,40.057,214.603,38.063
			"/>
		<rect x="224.087" y="34.817" fill="#020202" width="0.505" height="6.483"/>
		<path fill="#020202" d="M228.625,38.948c0-1.37,0.884-2.459,2.255-2.459c1.389,0,2.264,1.089,2.264,2.459
			c0,1.371-0.875,2.469-2.264,2.469C229.509,41.417,228.625,40.319,228.625,38.948 M232.601,38.948c0-1.039-0.613-2.002-1.721-2.002
			c-1.089,0-1.711,0.963-1.711,2.002c0,1.05,0.622,2.013,1.711,2.013C231.987,40.961,232.601,39.998,232.601,38.948"/>
		<path fill="#020202" d="M236.767,40.679l0.302-0.379c0.302,0.379,0.856,0.689,1.517,0.689c0.787,0,1.254-0.407,1.254-0.952
			c0-1.283-2.965-0.563-2.965-2.245c0-0.719,0.612-1.303,1.672-1.303c0.807,0,1.342,0.312,1.682,0.69l-0.282,0.36
			c-0.272-0.37-0.776-0.622-1.399-0.622c-0.729,0-1.176,0.369-1.176,0.854c0,1.176,2.965,0.457,2.965,2.265
			c0,0.758-0.584,1.38-1.76,1.38C237.817,41.417,237.234,41.194,236.767,40.679"/>
		<path fill="#020202" d="M244.094,38.948c0-1.361,0.962-2.459,2.265-2.459c1.429,0,2.217,1.137,2.217,2.488v0.135h-3.928
			c0.049,1.021,0.729,1.867,1.838,1.867c0.593,0,1.137-0.224,1.535-0.651l0.263,0.329c-0.466,0.486-1.06,0.76-1.837,0.76
			C245.075,41.417,244.094,40.396,244.094,38.948 M246.349,36.926c-1.107,0-1.662,0.972-1.701,1.789h3.412
			C248.05,37.918,247.524,36.926,246.349,36.926"/>
		<path fill="#FFFFFF" d="M129.825,30.989c-6.957,0-11.432-4.521-11.621-4.713l-0.748-0.771l3.195-3.197l0.77,0.692
			c0.033,0.032,3.527,3.131,7.186,3.131h12.541c2.035,0,4.141-0.937,4.141-2.504c0-1.663-1.352-2.707-3.543-2.742l-15.57,0.004
			c-5.492,0-8.279-2.784-8.279-8.278c0-2.429,4.045-6.445,8.652-6.445h11.809c6.954,0,11.43,4.519,11.618,4.712l0.748,0.771
			l-3.194,3.195l-0.77-0.691c-0.035-0.03-3.527-3.129-7.186-3.129h-12.539c-2.039,0-4.145,0.938-4.145,2.504
			c0,1.662,1.354,2.707,3.543,2.742l15.571-0.004c5.491,0,8.278,2.784,8.278,8.278c0,2.429-4.043,6.446-8.651,6.446H129.825z"/>
		<path fill="#020202" d="M127.034,9.933h6.939h5.6c4.141,0,7.915,3.409,7.915,3.409l1.704-1.705c0,0-4.262-4.383-10.835-4.383
			h-11.81c-4.019,0-7.56,3.531-7.56,5.356c0,1.826,0,7.188,7.188,7.188h13.396l-0.004-0.005h2.062c2.922,0,4.748,1.583,4.748,3.832
			c0,2.25-2.556,3.594-5.234,3.594h-6.94h-5.6c-4.14,0-7.914-3.408-7.914-3.408l-1.703,1.704c0,0,4.261,4.384,10.835,4.384h11.809
			c4.019,0,7.56-3.531,7.56-5.356c0-1.827,0.001-7.188-7.188-7.188h-13.397l0.005,0.006h-2.062c-2.922,0-4.748-1.584-4.748-3.834
			C121.8,11.278,124.355,9.933,127.034,9.933"/>
		<polygon fill="#020202" points="185.716,7.254 185.716,9.698 185.716,17.354 185.716,19.799 185.716,27.454 185.716,29.899 
			188.161,29.899 211.038,29.899 211.038,27.454 188.161,27.454 188.161,19.799 211.038,19.799 211.038,17.354 188.161,17.354 
			188.161,9.698 211.038,9.698 211.038,7.254 188.161,7.254 		"/>
		<polygon fill="#020202" points="166.719,7.254 154.428,7.254 154.428,9.698 166.719,9.698 166.719,29.899 169.165,29.899 
			169.165,9.698 181.454,9.698 181.454,7.254 169.165,7.254 		"/>
		<polygon fill="#020202" points="245.849,7.254 245.847,7.254 245.847,7.255 233.068,26.563 220.292,7.255 220.292,7.254 
			220.29,7.254 217.845,7.254 217.845,29.899 220.292,29.899 220.292,10.95 232.831,29.899 233.378,29.899 233.378,29.792 
			245.847,10.95 245.847,29.899 248.292,29.899 248.292,7.254 		"/>
		<path fill="#48A7DD" d="M24.098,22.937c4.81,1.143,7.049,3.666,7.049,6c0,9.479-16.622,11.002-23.48,11.002
			c-1.857,0-7.667,0-7.667-2.763c0-1.001,1.667-3.524,2.428-4.239c0.571-0.476,3.382-1.381,4.096-1.381
			c0.238,0,0.381,0.049,0.381,0.334c0,0.475-0.476,0.715-0.809,0.905c-0.286,0.19-0.524,0.428-0.81,0.713v0.097
			c17.002,0.618,21.67-4.287,21.67-5.05c0-2.428-13.192-4.333-15.479-4.715c-2.381-0.381-4.858-1.144-4.858-4
			c0-1.572,0.762-5.048,1.524-6.334C9.62,11.077,18.24,6.553,28.67,6.553c2,0,4.001,0.237,6.001,0.666
			c1.096,0.238,1.238,0.619,1.238,1.572c0,3.524-1.19,4.334-4,5.429c-2.048,0.762-2.43,1.001-4.287,2.334
			c-0.333,0.19-0.809,0.477-1.191,0.477c-0.476,0-0.762-0.238-0.762-0.715c0-0.096,0.905-1.571,3.477-3.334l-0.094-0.096
			c-12.288,0.43-17.575,4.859-17.622,5.954C11.43,19.507,10.81,19.84,24.098,22.937"/>
		<path fill="#48A7DD" d="M47.437,27.366c-0.477-0.668-0.811-1.145-0.811-2.002c0-1.904,1.523-2.952,3.001-3.713l5.048-2.621
			l4.619-7.239c-7.953,1.905-11.096,3.573-18.573,7.239c-0.762,0.382-1.811,0.906-2.715,0.906c-0.905,0-1.477-0.524-1.477-1.43
			c0-0.952,0.858-3.525,1.191-4.479c0.619-1.855,1.048-1.951,2.619-3.143l2.619-1.952c0.429-0.286,0.954-0.714,1.479-0.714
			c0.332,0,0.476,0.239,0.476,0.524c0,0.381,0.142,0.284-2.192,2.284l0.096,0.097c2.43-0.857,9.574-4.382,16.86-4.763
			c1.237-0.095,1.476,0.237,2.238,1.144c0.522,0.667,1.382,1.762,1.382,2.667c0,0.855-0.716,1.809-1.191,2.523l-2.429,3.524
			l0.097,0.097l15.19-7.192c0.524-0.239,2.334-1.097,2.858-1.097c0.57,0,0.904,0.383,0.904,0.905c0,0.62-2.904,5.714-6.144,4.811
			L55.104,22.46c-0.668,0.477-1.097,0.953-1.097,1.762c0,1,1.476,1.571,2.19,2l12.049,7.001c2.145,1.239,4.383,2.716,4.383,5.431
			c0,0.713-0.191,2.332-1.191,2.332c-0.572,0-1.904-0.761-2.381-1.047L50.246,29.604l-3.81,4.57
			c0.045,2.287-3.906,5.525-5.811,5.525c-0.62,0-1.286-0.334-1.286-1.047c0-0.858,0.475-1.477,0.999-2.144L47.437,27.366z"/>
		<path fill="#FFFFFF" d="M88.3,51.794c-1.845,0-3.188-1.439-3.188-3.425c0-3.498,5.27-11.751,9.705-18.036l-5.564,4.811
			c-2.462,2.141-5.082,4.268-7.193,4.268c-1.257,0-2.641-0.688-3.529-1.746c-0.697-0.834-0.993-1.801-0.828-2.727
			c0.186-1.515,0.447-3.682,8.713-13.559l1.014-1.214c1.801-2.156,3.432-4.11,4.321-5.38c-3.985,2.015-6.94,3.637-9.583,5.085
			c-1.505,0.827-2.916,1.6-4.361,2.36c-0.314,0.24-1.336,0.7-2.031,0.7c-1.31,0-1.725-0.764-1.857-1.219
			c-0.163-0.562-0.078-1.291,0.29-2.519l0.705-2.553c0.639-2.201,1.771-3.054,3.424-4.102c4.211-2.592,14.024-7.412,18.776-7.412
			c2.686,0,4.424,1.456,4.424,3.711c0,2.143-2.369,5.3-4.795,8.354l-0.441,0.56c-2.352,3.008-4.135,5.223-5.475,6.887
			c-1.854,2.306-2.903,3.61-3.34,4.39c0.139-0.078,0.301-0.188,0.49-0.349c2.065-1.72,3.047-2.481,3.83-3.086
			c1.768-1.371,2.5-1.94,12.903-11.417l0.272-0.253c1.121-1.06,2.129-1.938,3.129-1.938c1.901,0,3.332,2.396,3.332,3.951
			c0,1.182-0.752,2.196-3.237,5.547c-1.374,1.856-3.296,4.449-5.916,8.177l-0.95,1.354c-1.4,1.991-2.918,4.15-3.857,5.665
			c0.89-0.528,2.201-1.268,4.18-2.282c1.738-0.884,3.136-1.33,4.156-1.33c1.387,0,2.006,0.844,2.006,1.68
			c0,1.677-3.426,3.881-3.461,3.902c-3.133,2.358-8.696,6.961-10.896,9.564C92.131,49.745,90.342,51.794,88.3,51.794"/>
		<path fill="#48A7DD" d="M88.538,34.319c-1.429,1.237-4.524,4-6.478,4c-1.571,0-3.571-1.571-3.286-3.19
			c0.191-1.049-0.333-2.524,8.479-13.05c4.048-4.858,6.287-7.43,6.287-8.573c0.047-0.333-0.334-0.476-0.621-0.524
			c-7.287,3.621-11.287,6.002-15.621,8.287c-0.334,0.238-1.143,0.572-1.524,0.572c-0.428,0-0.714-0.095-0.81-0.429
			s0-0.953,0.287-1.905l0.713-2.572c0.525-1.81,1.383-2.476,2.953-3.476C82.872,11.03,92.585,6.22,97.11,6.22
			c1.667,0,3.334,0.714,3.334,2.619c0,2.143-3.619,6.477-5.001,8.239c-7.524,9.62-9.19,11.097-9.286,12.524
			c-0.049,0.62,0.952,1.239,2.524-0.094c6.762-5.62,1.81-0.904,16.763-14.525c0.525-0.477,1.906-1.905,2.668-1.905
			c1.19,0,2.238,1.856,2.238,2.856c0,1.334-2.096,3.334-8.953,13.098c-3.906,5.572-6.906,9.668-5.621,9.763
			c0.667,0.048,0.811-0.571,6.383-3.429c3.19-1.619,4.572-1.381,4.572-0.618c0,0.761-2.238,2.571-2.906,2.952
			c-3.048,2.285-8.856,7.049-11.191,9.811c-1,1.143-2.715,3.191-4.334,3.191c-1.334,0-2.096-1.047-2.096-2.334
			c0-4.762,11.668-20.67,15.051-24.861l-0.096-0.095L88.538,34.319z"/>
	</g>
</g>
</svg>
