<svg xmlns="http://www.w3.org/2000/svg" width="248.575" height="51.794" viewBox="0 0 248.575 51.794"><path fill="#E8168B" d="M112.077 22.374l-1.81-3.069-30.551 3.069 30.551 3.068zm3.779 0l1.809 3.068 25.332-3.068-25.332-3.069zm-1.767 2.011l-3.068 1.811 3.068 18.552 3.069-18.552zm0-4.023l3.069-1.811L114.089 0l-3.068 18.551z"/><path fill="#020202" d="M120.524 38.063c0-1.992 1.449-3.353 3.285-3.353 1.031 0 1.809.457 2.363 1.147l-.468.302c-.407-.564-1.118-.943-1.896-.943-1.525 0-2.702 1.156-2.702 2.847 0 1.672 1.177 2.849 2.702 2.849.777 0 1.488-.38 1.896-.943l.468.292c-.574.709-1.332 1.156-2.363 1.156-1.835 0-3.285-1.36-3.285-3.354m9.484 3.238v-4.694h.505v.807c.399-.525.934-.904 1.585-.904v.555c-.087-.021-.155-.021-.253-.021-.477 0-1.117.428-1.332.837v3.421h-.505zm5.587 1.37c.107.049.293.078.408.078.311 0 .525-.126.71-.574l.369-.835-1.983-4.733h.564l1.711 4.102 1.691-4.102h.572l-2.429 5.725c-.253.593-.651.875-1.206.875-.154 0-.369-.03-.496-.068l.089-.468zm7.219-1.992l.302-.379c.301.379.855.689 1.517.689.786 0 1.253-.407 1.253-.952 0-1.283-2.964-.563-2.964-2.245 0-.719.612-1.303 1.672-1.303.806 0 1.341.312 1.681.69l-.281.36c-.272-.37-.777-.622-1.399-.622-.729 0-1.177.369-1.177.854 0 1.176 2.965.457 2.965 2.265 0 .758-.583 1.38-1.76 1.38-.759.001-1.341-.222-1.809-.737m7.697-.282v-3.344h-.777v-.447h.777v-1.283h.516v1.283h.953v.447h-.953v3.266c0 .379.155.642.485.642a.724.724 0 0 0 .524-.224l.195.389c-.185.175-.408.291-.798.291-.621 0-.922-.379-.922-1.02m8.289.904v-.554c-.418.457-.942.67-1.594.67-.807 0-1.643-.555-1.643-1.564 0-1.021.826-1.555 1.643-1.555.651 0 1.186.213 1.594.67v-.952c0-.7-.563-1.079-1.264-1.079-.583 0-1.04.204-1.467.69l-.282-.351c.486-.524 1.03-.787 1.808-.787.953 0 1.711.457 1.711 1.507v3.305h-.506zm0-.924v-1.03c-.33-.427-.855-.65-1.418-.65-.779 0-1.283.496-1.283 1.166 0 .66.504 1.156 1.283 1.156.562 0 1.088-.214 1.418-.642m4.808-5.56h.506V41.3h-.506zm9.834 3.246c0-1.992 1.449-3.353 3.285-3.353 1.031 0 1.809.457 2.363 1.147l-.467.302c-.408-.564-1.119-.943-1.896-.943-1.525 0-2.702 1.156-2.702 2.847 0 1.672 1.177 2.849 2.702 2.849.777 0 1.488-.38 1.896-.943l.467.292c-.574.709-1.332 1.156-2.363 1.156-1.835 0-3.285-1.36-3.285-3.354m9.484-3.246h.506V41.3h-.506zm4.538 4.131c0-1.361.963-2.459 2.266-2.459 1.428 0 2.215 1.137 2.215 2.488v.135h-3.926c.047 1.021.729 1.867 1.836 1.867.594 0 1.138-.224 1.537-.651l.262.329c-.467.486-1.059.76-1.838.76-1.372 0-2.352-1.021-2.352-2.469m2.256-2.022c-1.109 0-1.662.972-1.701 1.789h3.412c-.011-.797-.535-1.789-1.711-1.789m9.24 4.375v-.554c-.418.457-.943.67-1.594.67-.807 0-1.643-.555-1.643-1.564 0-1.021.826-1.555 1.643-1.555.65 0 1.186.213 1.594.67v-.952c0-.7-.564-1.079-1.264-1.079-.583 0-1.04.204-1.467.69l-.282-.351c.485-.524 1.03-.787 1.808-.787.952 0 1.711.457 1.711 1.507v3.305h-.506zm0-.924v-1.03c-.331-.427-.855-.65-1.419-.65-.778 0-1.282.496-1.282 1.166 0 .66.504 1.156 1.282 1.156.563 0 1.088-.214 1.419-.642m4.809.924v-4.694h.506v.807c.398-.525.934-.904 1.584-.904v.555c-.087-.021-.156-.021-.253-.021-.476 0-1.116.428-1.331.837v3.421h-.506zm10.834-3.238c0-1.992 1.449-3.353 3.285-3.353 1.031 0 1.809.457 2.363 1.147l-.467.302c-.408-.564-1.118-.943-1.896-.943-1.525 0-2.701 1.156-2.701 2.847 0 1.672 1.176 2.849 2.701 2.849.778 0 1.488-.38 1.896-.943l.467.292c-.574.709-1.332 1.156-2.363 1.156-1.836 0-3.285-1.36-3.285-3.354m9.484-3.246h.505V41.3h-.505zm4.538 4.131c0-1.37.884-2.459 2.255-2.459 1.389 0 2.264 1.089 2.264 2.459 0 1.371-.875 2.469-2.264 2.469-1.371 0-2.255-1.098-2.255-2.469m3.976 0c0-1.039-.613-2.002-1.721-2.002-1.089 0-1.711.963-1.711 2.002 0 1.05.622 2.013 1.711 2.013 1.107 0 1.721-.963 1.721-2.013m4.166 1.731l.302-.379c.302.379.856.689 1.517.689.787 0 1.254-.407 1.254-.952 0-1.283-2.965-.563-2.965-2.245 0-.719.612-1.303 1.672-1.303.807 0 1.342.312 1.682.69l-.282.36c-.272-.37-.776-.622-1.399-.622-.729 0-1.176.369-1.176.854 0 1.176 2.965.457 2.965 2.265 0 .758-.584 1.38-1.76 1.38-.76.001-1.343-.222-1.81-.737m7.327-1.731c0-1.361.962-2.459 2.265-2.459 1.429 0 2.217 1.137 2.217 2.488v.135h-3.928c.049 1.021.729 1.867 1.838 1.867.593 0 1.137-.224 1.535-.651l.263.329c-.466.486-1.06.76-1.837.76-1.372 0-2.353-1.021-2.353-2.469m2.255-2.022c-1.107 0-1.662.972-1.701 1.789h3.412c-.01-.797-.536-1.789-1.711-1.789"/><path fill="#FFF" d="M129.825 30.989c-6.957 0-11.432-4.521-11.621-4.713l-.748-.771 3.195-3.197.77.692c.033.032 3.527 3.131 7.186 3.131h12.541c2.035 0 4.141-.937 4.141-2.504 0-1.663-1.352-2.707-3.543-2.742l-15.57.004c-5.492 0-8.279-2.784-8.279-8.278 0-2.429 4.045-6.445 8.652-6.445h11.809c6.954 0 11.43 4.519 11.618 4.712l.748.771-3.194 3.195-.77-.691c-.035-.03-3.527-3.129-7.186-3.129h-12.539c-2.039 0-4.145.938-4.145 2.504 0 1.662 1.354 2.707 3.543 2.742l15.571-.004c5.491 0 8.278 2.784 8.278 8.278 0 2.429-4.043 6.446-8.651 6.446h-11.806z"/><path fill="#020202" d="M127.034 9.933h12.539c4.141 0 7.915 3.409 7.915 3.409l1.704-1.705s-4.262-4.383-10.835-4.383h-11.81c-4.019 0-7.56 3.531-7.56 5.356 0 1.826 0 7.188 7.188 7.188h13.396l-.004-.005h2.062c2.922 0 4.748 1.583 4.748 3.832 0 2.25-2.556 3.594-5.234 3.594h-12.54c-4.14 0-7.914-3.408-7.914-3.408l-1.703 1.704s4.261 4.384 10.835 4.384h11.809c4.019 0 7.56-3.531 7.56-5.356 0-1.827.001-7.188-7.188-7.188h-13.397l.005.006h-2.062c-2.922 0-4.748-1.584-4.748-3.834 0-2.249 2.555-3.594 5.234-3.594m58.682-2.679v22.645h25.322v-2.445h-22.877v-7.655h22.877v-2.445h-22.877V9.698h22.877V7.254h-22.877zm-18.997 0h-12.291v2.444h12.291v20.201h2.446V9.698h12.289V7.254h-12.289zm79.13 0h-.002v.001l-12.779 19.308-12.776-19.308v-.001h-2.447v22.645h2.447V10.95l12.539 18.949h.547v-.107l12.469-18.842v18.949h2.445V7.254z"/><path fill="#48A7DD" d="M24.098 22.937c4.81 1.143 7.049 3.666 7.049 6 0 9.479-16.622 11.002-23.48 11.002-1.857 0-7.667 0-7.667-2.763 0-1.001 1.667-3.524 2.428-4.239.571-.476 3.382-1.381 4.096-1.381.238 0 .381.049.381.334 0 .475-.476.715-.809.905-.286.19-.524.428-.81.713v.097c17.002.618 21.67-4.287 21.67-5.05 0-2.428-13.192-4.333-15.479-4.715-2.381-.381-4.858-1.144-4.858-4 0-1.572.762-5.048 1.524-6.334C9.62 11.077 18.24 6.553 28.67 6.553c2 0 4.001.237 6.001.666 1.096.238 1.238.619 1.238 1.572 0 3.524-1.19 4.334-4 5.429-2.048.762-2.43 1.001-4.287 2.334-.333.19-.809.477-1.191.477-.476 0-.762-.238-.762-.715 0-.096.905-1.571 3.477-3.334l-.094-.096c-12.288.43-17.575 4.859-17.622 5.954 0 .667-.62 1 12.668 4.097m23.339 4.429c-.477-.668-.811-1.145-.811-2.002 0-1.904 1.523-2.952 3.001-3.713l5.048-2.621 4.619-7.239c-7.953 1.905-11.096 3.573-18.573 7.239-.762.382-1.811.906-2.715.906-.905 0-1.477-.524-1.477-1.43 0-.952.858-3.525 1.191-4.479.619-1.855 1.048-1.951 2.619-3.143l2.619-1.952c.429-.286.954-.714 1.479-.714.332 0 .476.239.476.524 0 .381.142.284-2.192 2.284l.096.097c2.43-.857 9.574-4.382 16.86-4.763 1.237-.095 1.476.237 2.238 1.144.522.667 1.382 1.762 1.382 2.667 0 .855-.716 1.809-1.191 2.523l-2.429 3.524.097.097 15.19-7.192c.524-.239 2.334-1.097 2.858-1.097.57 0 .904.383.904.905 0 .62-2.904 5.714-6.144 4.811L55.104 22.46c-.668.477-1.097.953-1.097 1.762 0 1 1.476 1.571 2.19 2l12.049 7.001c2.145 1.239 4.383 2.716 4.383 5.431 0 .713-.191 2.332-1.191 2.332-.572 0-1.904-.761-2.381-1.047L50.246 29.604l-3.81 4.57c.045 2.287-3.906 5.525-5.811 5.525-.62 0-1.286-.334-1.286-1.047 0-.858.475-1.477.999-2.144l7.099-9.142z"/><path fill="#FFF" d="M88.3 51.794c-1.845 0-3.188-1.439-3.188-3.425 0-3.498 5.27-11.751 9.705-18.036l-5.564 4.811c-2.462 2.141-5.082 4.268-7.193 4.268-1.257 0-2.641-.688-3.529-1.746-.697-.834-.993-1.801-.828-2.727.186-1.515.447-3.682 8.713-13.559l1.014-1.214c1.801-2.156 3.432-4.11 4.321-5.38-3.985 2.015-6.94 3.637-9.583 5.085-1.505.827-2.916 1.6-4.361 2.36-.314.24-1.336.7-2.031.7-1.31 0-1.725-.764-1.857-1.219-.163-.562-.078-1.291.29-2.519l.705-2.553c.639-2.201 1.771-3.054 3.424-4.102 4.211-2.592 14.024-7.412 18.776-7.412 2.686 0 4.424 1.456 4.424 3.711 0 2.143-2.369 5.3-4.795 8.354l-.441.56a571.944 571.944 0 0 1-5.475 6.887c-1.854 2.306-2.903 3.61-3.34 4.39.139-.078.301-.188.49-.349a117.79 117.79 0 0 1 3.83-3.086c1.768-1.371 2.5-1.94 12.903-11.417l.272-.253c1.121-1.06 2.129-1.938 3.129-1.938 1.901 0 3.332 2.396 3.332 3.951 0 1.182-.752 2.196-3.237 5.547-1.374 1.856-3.296 4.449-5.916 8.177l-.95 1.354c-1.4 1.991-2.918 4.15-3.857 5.665.89-.528 2.201-1.268 4.18-2.282 1.738-.884 3.136-1.33 4.156-1.33 1.387 0 2.006.844 2.006 1.68 0 1.677-3.426 3.881-3.461 3.902-3.133 2.358-8.696 6.961-10.896 9.564-1.337 1.532-3.126 3.581-5.168 3.581"/><path fill="#48A7DD" d="M88.538 34.319c-1.429 1.237-4.524 4-6.478 4-1.571 0-3.571-1.571-3.286-3.19.191-1.049-.333-2.524 8.479-13.05 4.048-4.858 6.287-7.43 6.287-8.573.047-.333-.334-.476-.621-.524-7.287 3.621-11.287 6.002-15.621 8.287-.334.238-1.143.572-1.524.572-.428 0-.714-.095-.81-.429s0-.953.287-1.905l.713-2.572c.525-1.81 1.383-2.476 2.953-3.476C82.872 11.03 92.585 6.22 97.11 6.22c1.667 0 3.334.714 3.334 2.619 0 2.143-3.619 6.477-5.001 8.239-7.524 9.62-9.19 11.097-9.286 12.524-.049.62.952 1.239 2.524-.094 6.762-5.62 1.81-.904 16.763-14.525.525-.477 1.906-1.905 2.668-1.905 1.19 0 2.238 1.856 2.238 2.856 0 1.334-2.096 3.334-8.953 13.098-3.906 5.572-6.906 9.668-5.621 9.763.667.048.811-.571 6.383-3.429 3.19-1.619 4.572-1.381 4.572-.618 0 .761-2.238 2.571-2.906 2.952-3.048 2.285-8.856 7.049-11.191 9.811-1 1.143-2.715 3.191-4.334 3.191-1.334 0-2.096-1.047-2.096-2.334 0-4.762 11.668-20.67 15.051-24.861l-.096-.095-12.621 10.907z"/></svg>